# xmcd
#
# Track frame offsets:
#	150
#	11022
#	23865
#	33682
#	48042
#	58440
#	71830
#	82575
#	95250
#	107025
#
# Disc length: 1565
#
# Revision: 3
# Processed by: cddbd v1.5.1PL0 Copyright (c) Steve Scherf et al.
# Submitted via: audiograbber 1.81.03
# Normalized: r2:DSETVAR1
#
DISCID=7b061b0a
DTITLE=Various Artist - Country Music Classics - Volume II 1960-1965
DYEAR=1990
DGENRE=Country
TTITLE0=Faron Young - Hello Walls
TTITLE1=Patsy Cline - I Fall To Pieces
TTITLE2=Ned Miller - From A Jack To A King
TTITLE3=Tex Ritter - I Dreamed Of A Hillbilly Heaven
TTITLE4=Dave Dudley - Six Days On The Road
TTITLE5=Claude King - Wolverton Mountain
TTITLE6=Leroy Van Dyke - Walk On By
TTITLE7=Bill Anderson - Still
TTITLE8=George Jones - She Thinks I Still Care
TTITLE9=Ferlin Huskey - Wings Of A Dove
EXTD=
EXTT0=
EXTT1=
EXTT2=
EXTT3=
EXTT4=
EXTT5=
EXTT6=
EXTT7=
EXTT8=
EXTT9=
PLAYORDER=
